<?xml version="1.0" encoding="utf-8"?>
<!-- Generator: Adobe Illustrator 16.0.0, SVG Export Plug-In . SVG Version: 6.00 Build 0)  -->
<!DOCTYPE svg PUBLIC "-//W3C//DTD SVG 1.1//EN" "http://www.w3.org/Graphics/SVG/1.1/DTD/svg11.dtd">
<svg version="1.1" id="Layer_1" xmlns="http://www.w3.org/2000/svg" xmlns:xlink="http://www.w3.org/1999/xlink" x="0px" y="0px"
	 width="1192.439px" height="268px" viewBox="0 0 1192.439 268" enable-background="new 0 0 1192.439 268" xml:space="preserve">
<path fill="#FFFFFF" d="M270.187,216.601c-12.357,11.024-28.647,17.728-46.505,17.728c-38.591,0-69.871-31.29-69.871-69.88
	s31.28-69.87,69.871-69.87c17.349,0,33.227,6.325,45.449,16.795c1.366,1.171,4.34,4.798,5.299,8.465
	c1.019,3.898,0.775,10.63-4.719,17.032c-6.41,7.47-15.075,6.512-19.619,5.301c-1.893-0.504-4.932-2.8-5.93-3.592
	c-5.626-4.461-12.743-7.131-20.48-7.131c-18.23,0-33.011,14.779-33.011,33c0,18.23,14.78,33.01,33.011,33.01
	c7.804,0,14.974-2.712,20.625-7.24c0.968-0.775,3.832-2.848,6.049-3.757c4.189-1.718,12.361-2.519,19.355,3.282
	c7.415,6.148,6.75,15.625,4.539,20.922C273.1,213.422,271.219,215.68,270.187,216.601z"/>
<rect x="822.879" y="140.897" fill="#FFFFFF" width="36.871" height="93.449"/>
<path fill="#FFFFFF" d="M859.619,129.82h-36.871V84.89c0,0,15.002-3.321,27.543,8.646c8.383,8,9.392,20.394,9.408,25.715
	C859.704,120.858,859.619,129.82,859.619,129.82z"/>
<path fill="#FFFFFF" d="M942.875,94.558c-38.59,0-69.869,31.281-69.869,69.871s31.279,69.879,69.869,69.879
	c5.57,0,10.986-0.654,16.18-1.887c2.008-0.476,5.916-3.469,5.916-7.136s-0.029-25.04,0-29.624s-3.152-4.122-4.898-3.054
	c-5.01,3.063-10.896,4.831-17.197,4.831c-18.219,0-33-14.78-33-33.01c0-18.23,14.781-33,33-33c18.23,0,33.01,14.77,33.01,33
	c0,0.008,0,0.016,0,0.024l0,0v60.582v1.003c0,0-0.678,8.311,6.385,8.311c4.545,0,15.863,0,23.355,0c4.152,0,7.131-0.811,7.131-7.312
	s0-62.608,0-62.608C1012.756,125.839,981.465,94.558,942.875,94.558z"/>
<g>
	<path fill="#FFFFFF" d="M1092.426,200.178c-2.143,0-3.701,0.685-4.764,2.093c-1.102,1.458-1.66,3.704-1.66,6.676
		c0,2.975,0.553,5.218,1.641,6.669c1.051,1.4,2.602,2.081,4.744,2.081c4.295,0,6.383-2.862,6.383-8.75
		C1098.77,203.046,1096.693,200.178,1092.426,200.178z"/>
	<path fill="#FFFFFF" d="M1026.791,183.751c0,0-0.166,16.27,0,28.77s7.334,21.609,26.668,21.603
		c19.332-0.007,114.332,0.139,114.332,0.139v-23.106c0-17.311-8.008-27.489-29.633-27.223
		C1134.545,183.978,1026.791,183.751,1026.791,183.751z M1048.686,223.378c-0.75,0.742-1.777,1.117-3.055,1.117
		c-1.297,0-2.334-0.367-3.084-1.091c-0.756-0.731-1.139-1.747-1.139-3.017c0-1.311,0.377-2.337,1.123-3.049
		c0.736-0.702,1.779-1.059,3.1-1.059c1.285,0,2.313,0.363,3.057,1.08c0.75,0.727,1.131,1.744,1.131,3.027
		C1049.818,221.628,1049.436,222.635,1048.686,223.378z M1066.887,217.735c1.889,0,4.23-0.487,6.963-1.448l1.08-0.38v6.728
		l-0.5,0.208c-2.414,1.006-5.141,1.517-8.107,1.517c-4.348,0-7.738-1.355-10.072-4.03c-2.309-2.641-3.479-6.444-3.479-11.305
		c0-3.057,0.568-5.782,1.689-8.101c1.141-2.353,2.805-4.186,4.945-5.445c2.127-1.252,4.645-1.887,7.48-1.887
		c2.863,0,5.773,0.699,8.648,2.077l0.684,0.327l-2.537,6.396l-0.783-0.372c-1.031-0.49-2.08-0.923-3.119-1.286
		c-0.982-0.343-1.957-0.518-2.893-0.518c-2.008,0-3.512,0.727-4.602,2.218c-1.131,1.551-1.707,3.781-1.707,6.629
		C1060.578,214.898,1062.643,217.735,1066.887,217.735z M1102.986,220.317c-2.475,2.682-6.041,4.042-10.6,4.042
		c-4.561,0-8.127-1.36-10.604-4.042c-2.459-2.664-3.705-6.502-3.705-11.41c0-4.91,1.252-8.733,3.721-11.365
		c2.48-2.646,6.057-3.988,10.627-3.988s8.135,1.354,10.592,4.023c2.439,2.65,3.676,6.477,3.676,11.369
		C1106.693,213.828,1105.447,217.653,1102.986,220.317z M1142.879,223.972h-7.227v-14.23c0-0.639,0.01-1.376,0.029-2.211
		c0.008-0.293,0.021-0.756,0.047-1.396l-5.873,17.837h-6.693l-5.311-17.304c0.059,1.459,0.088,2.564,0.088,3.307v13.997h-6.992
		v-29.973h9.592l6.191,20.006l6.566-20.006h9.582V223.972z"/>
</g>
<path fill="#FFFFFF" d="M790.791,162.202c-9.457-7.969-23.197-11.727-36.928-12.284c-15.572-0.633-19.711-6.479-19.711-13.007
	c0-7.249,7.697-13.146,17.158-13.146c7.457,0,14.203,3.827,16.402,9.308l0.236,0.591l0.25,0.626c0,0,1.258,4.316,7.07,4.316
	c3.963,0,16.203,0,23.594,0c3.449,0,5.781-2.404,5.287-5.703c-0.076-0.508-0.121-0.832-0.121-0.832
	c-3.031-21.387-25.73-40.09-52.752-40.09c-29.264,0-53.039,21.574-53.039,44.93c0,10.903,5.166,21.256,14.549,29.15
	c10.133,8.515,23.814,13.204,38.523,13.204c9.176,0,16.641,5.712,16.641,12.733c0,7.021-7.465,12.732-16.641,12.732
	c-6.836,0-12.92-3.274-15.43-7.973c-0.479-0.896-2.049-4.387-10.799-4.387c-6.35,0-17.652,0.014-23.375,0
	c-3.688-0.009-3.395,2.07-3.395,2.07c1.453,22.506,24.699,42.289,52.965,42.289c29.262,0,53.1-21.154,53.1-44.51
	C804.377,181.323,800.172,170.097,790.791,162.202z"/>
<path fill="#FFFFFF" d="M530.832,205.66c-6.438-8.188-12.559-8.456-14.805-8.938c-14.877-3.198-26.037-16.433-26.037-32.273v-2.273
	h46.049c0,0-0.051-36.869-29.145-36.869c-14.623,0-16.904,0-16.904,0s1.385-15.854-7.949-26.854
	c-9.222-10.869-28.919-11.792-28.919-11.792v38.646c0,0-23.414,0.021-25.289,0.001s-3.278,0.919-2.066,2.747
	c2.971,4.482,7.854,12.13,8.74,29.059c0.084,1.603,1.075,5.063,4.576,5.063c3.5,0,14.039,0,14.039,0v2.273
	c0,38.59,31.279,69.88,69.871,69.88v-0.01h13.84C536.832,234.318,536.869,213.339,530.832,205.66z"/>
<path fill="#FFFFFF" d="M354.241,94.558c-38.59,0-69.869,31.281-69.869,69.871s31.279,69.879,69.869,69.879
	c5.57,0,10.987-0.654,16.181-1.887c2.007-0.476,5.915-3.469,5.915-7.136s-0.029-25.04,0-29.624s-3.152-4.122-4.898-3.054
	c-5.009,3.063-10.896,4.831-17.197,4.831c-18.219,0-33-14.78-33-33.01c0-18.23,14.781-33,33-33c18.23,0,33.01,14.77,33.01,33
	c0,0.008,0,0.016,0,0.024l0,0v60.582v1.003c0,0-0.677,8.311,6.386,8.311c4.545,0,15.862,0,23.355,0c4.152,0,7.13-0.811,7.13-7.312
	s0-62.608,0-62.608C424.122,125.839,392.831,94.558,354.241,94.558z"/>
<path fill="#FFFFFF" d="M629.207,153.046c-13.541-0.086-20.996,10.073-20.934,22.823l0.018,7.009h36.34h19.33h20.711
	c1.609-5.869,2.459-12.05,2.459-18.43c0-38.59-31.289-69.87-69.879-69.87s-69.871,31.28-69.871,69.87s31.281,69.87,69.871,69.87
	l21.041,0.04v0.01h37.24c0,0,0.926-18.629-9.824-27.833c-11.49-9.838-27.416-9.407-27.416-9.407l-22.369,0.286
	c-17.604-0.697-31.672-15.182-31.672-32.966c0-18.23,14.779-33,33-33c11.4,0,21.449,5.77,27.379,14.561
	c1.471,2.17,2.691,4.529,3.6,7.029C648.23,153.038,639.582,153.111,629.207,153.046z"/>
<path fill="#FFFFFF" d="M128.511,136.788c-9.62-10.41-23.01-17.26-37.989-18.42c-0.011,0-0.011,0-0.021,0
	c-1.49-0.109-2.99-0.17-4.5-0.17c-1.37,0-5.545-0.123-7.198-0.736c-8.245-3.06-14.142-10.976-14.142-20.283
	c0-11.94,9.68-21.621,21.62-21.621c8.641,0,16.102,5.076,19.557,12.416c0.963,2.046,3.535,6.604,8.119,6.604
	c3.234,0,16.931,0,24.709,0c3.241,0,5.416-0.709,5.126-4.12c-3.331-28.813-27.813-51.189-57.511-51.189
	c-31.98,0-57.9,25.93-57.9,57.91c0,15.18,5.84,28.979,15.391,39.31c10.489,11.33,25.449,18.47,42.08,18.58h0.149
	c0.09,0,0.19,0,0.28,0.01c0.02-0.01,0.039-0.01,0.05,0c11.47,0.17,20.7,9.521,20.7,21.021c0,11.619-9.41,21.029-21.03,21.029h-16h-4
	h-33.24c-0.362,36,34.978,36.688,37.082,36.87c5.104,0.439,16.158,0,16.158,0c31.979,0,57.899-25.92,57.899-57.899
	C143.901,160.918,138.061,147.108,128.511,136.788z"/>
</svg>
